<svg width="314" height="82" viewBox="0 0 314 82" fill="none" xmlns="http://www.w3.org/2000/svg">
<path d="M12.5376 43.3608C12.5376 44.6392 13.0119 45.567 13.9603 46.1443C14.9088 46.8454 16.9294 47.567 20.0222 48.3093C23.2799 49.0928 25.651 50.1649 27.1356 51.5258C28.6614 52.8866 29.4242 54.8454 29.4242 57.4021C29.4242 60.0825 28.4139 62.2474 26.3933 63.8969C24.4139 65.5464 21.816 66.3711 18.5995 66.3711C13.9397 66.3711 9.73352 64.7216 5.98094 61.4227L9.19744 57.5876C12.3315 60.268 15.5067 61.6082 18.7232 61.6082C20.3315 61.6082 21.6304 61.2577 22.6201 60.5567C23.6098 59.8144 24.1047 58.866 24.1047 57.7113C24.1047 56.5567 23.651 55.6495 22.7438 54.9897C21.8779 54.3299 20.3108 53.732 18.0428 53.1959C14.1253 52.2887 11.4036 51.2165 9.87785 49.9794C8.10466 48.6186 7.21806 46.5361 7.21806 43.732C7.21806 41.0103 8.20775 38.8866 10.1871 37.3608C12.1665 35.7938 14.7026 35.0103 17.7954 35.0103C21.9603 35.0103 25.5273 36.2268 28.4964 38.6598L25.7748 42.4948C24.8675 41.6701 23.651 41.0103 22.1253 40.5155C20.5995 39.9794 19.0943 39.7113 17.6098 39.7113C16.084 39.7113 14.8469 40.0412 13.8985 40.701C12.9913 41.3196 12.5376 42.2062 12.5376 43.3608ZM48.1928 61.4845C50.5434 61.4845 52.399 60.6804 53.7599 59.0722C55.1619 57.4639 55.863 55.2784 55.863 52.5155V35.7526H60.997V52.701C60.997 56.9897 59.8217 60.3299 57.4712 62.7216C55.1207 65.1134 52.0279 66.3093 48.1928 66.3093C44.3578 66.3093 41.265 65.1134 38.9145 62.7216C36.564 60.3299 35.3887 56.9897 35.3887 52.701V35.7526H40.4609V52.5155C40.4609 55.3196 41.1619 57.5052 42.564 59.0722C43.9248 60.6804 45.8011 61.4845 48.1928 61.4845ZM91.371 57.6495L94.6494 60.9897C91.5153 64.5773 87.639 66.3711 83.0205 66.3711C78.4432 66.3711 74.6287 64.9072 71.5772 61.9794C68.5669 59.0103 67.0617 55.2783 67.0617 50.7835C67.0617 46.2474 68.6081 42.4948 71.7009 39.5258C74.7937 36.5155 78.6906 35.0103 83.3916 35.0103C88.0102 35.0103 91.9071 36.7423 95.0823 40.2062L91.8659 43.732C90.4226 42.3299 89.0617 41.3608 87.7834 40.8247C86.505 40.2887 84.9999 40.0206 83.2679 40.0206C80.1751 40.0206 77.5772 41.0103 75.4741 42.9897C73.4122 44.9691 72.3813 47.4845 72.3813 50.5361C72.3813 53.5464 73.4122 56.1031 75.4741 58.2062C77.536 60.3093 79.9896 61.3608 82.8349 61.3608C84.5669 61.3608 86.0514 61.0722 87.2885 60.4948C88.5669 59.9175 89.9277 58.9691 91.371 57.6495ZM118.545 54.9897L126.463 66H119.968L112.731 55.7938H106.05V66H100.916V35.7526H112.174C116.751 35.7526 120.03 36.5361 122.009 38.1031C124.03 39.6289 125.04 42.1237 125.04 45.5876C125.04 50.5773 122.875 53.7113 118.545 54.9897ZM112.359 51.2165C115.205 51.2165 117.164 50.7835 118.236 49.9175C119.308 49.0515 119.844 47.5876 119.844 45.5258C119.844 43.5464 119.308 42.2062 118.236 41.5052C117.164 40.7629 115.246 40.3918 112.483 40.3918H106.05V51.2165H112.359ZM153.718 35.7526V40.5155H137.574V48.5567H152.048V53.0722H137.574V61.1753H154.213V66H132.44V35.7526H153.718Z" fill="#0A5004" fill-opacity="0.8"/>
<path d="M13.9603 46.1443L15.1491 44.536L15.0769 44.4826L15.0002 44.4359L13.9603 46.1443ZM20.0222 48.3093L20.4899 46.3647L20.4889 46.3645L20.0222 48.3093ZM27.1356 51.5258L25.7841 53.0001L25.7942 53.0093L25.8044 53.0184L27.1356 51.5258ZM26.3933 63.8969L25.1286 62.3476L25.1207 62.354L25.1129 62.3605L26.3933 63.8969ZM5.98094 61.4227L4.44856 60.1375L3.19288 61.6346L4.66043 62.9248L5.98094 61.4227ZM9.19744 57.5876L10.4974 56.0677L8.96273 54.7552L7.66506 56.3024L9.19744 57.5876ZM22.6201 60.5567L23.7762 62.1888L23.7984 62.173L23.8201 62.1567L22.6201 60.5567ZM22.7438 54.9897L21.5317 56.5806L21.5495 56.5941L21.5675 56.6072L22.7438 54.9897ZM18.0428 53.1959L18.5029 51.2495L18.494 51.2474L18.0428 53.1959ZM9.87785 49.9794L11.1375 48.4259L11.1167 48.409L11.0955 48.3928L9.87785 49.9794ZM10.1871 37.3608L11.4081 38.9448L11.4184 38.9369L11.4285 38.9289L10.1871 37.3608ZM28.4964 38.6598L30.1274 39.8173L31.2074 38.2956L29.7641 37.1128L28.4964 38.6598ZM25.7748 42.4948L24.4294 43.9747L26.0995 45.493L27.4058 43.6523L25.7748 42.4948ZM22.1253 40.5155L21.4623 42.4024L21.4852 42.4104L21.5083 42.4179L22.1253 40.5155ZM13.8985 40.701L15.0251 42.3535L15.0329 42.3482L15.0406 42.3428L13.8985 40.701ZM10.5376 43.3608C10.5376 45.2121 11.2762 46.8519 12.9204 47.8527L15.0002 44.4359C14.7476 44.2821 14.5376 44.0662 14.5376 43.3608H10.5376ZM12.7715 47.7527C13.4829 48.2785 14.4443 48.7126 15.5145 49.0948C16.616 49.4882 17.9691 49.8733 19.5554 50.2541L20.4889 46.3645C18.9824 46.0029 17.7789 45.6561 16.8598 45.3279C15.9093 44.9884 15.3862 44.7112 15.1491 44.536L12.7715 47.7527ZM19.5545 50.2538C22.6761 51.0046 24.6638 51.9731 25.7841 53.0001L28.487 50.0515C26.6383 48.3568 23.8837 47.181 20.4899 46.3647L19.5545 50.2538ZM25.8044 53.0184C26.8021 53.9082 27.4242 55.2618 27.4242 57.4021H31.4242C31.4242 54.4289 30.5207 51.865 28.4668 50.0332L25.8044 53.0184ZM27.4242 57.4021C27.4242 59.501 26.6692 61.0899 25.1286 62.3476L27.6581 65.4462C30.1587 63.4049 31.4242 60.6639 31.4242 57.4021H27.4242ZM25.1129 62.3605C23.5753 63.6419 21.4677 64.3711 18.5995 64.3711V68.3711C22.1643 68.3711 25.2526 67.4509 27.6737 65.4333L25.1129 62.3605ZM18.5995 64.3711C14.4626 64.3711 10.7176 62.9238 7.30146 59.9206L4.66043 62.9248C8.74942 66.5195 13.4168 68.3711 18.5995 68.3711V64.3711ZM7.51333 62.7079L10.7298 58.8729L7.66506 56.3024L4.44856 60.1375L7.51333 62.7079ZM7.8975 59.1076C11.2892 62.0083 14.9084 63.6082 18.7232 63.6082V59.6082C16.105 59.6082 13.3738 58.5278 10.4974 56.0677L7.8975 59.1076ZM18.7232 63.6082C20.6121 63.6082 22.3539 63.1962 23.7762 62.1888L21.4641 58.9247C20.907 59.3193 20.0508 59.6082 18.7232 59.6082V63.6082ZM23.8201 62.1567C25.2716 61.0681 26.1047 59.546 26.1047 57.7113H22.1047C22.1047 58.186 21.948 58.5608 21.4201 58.9567L23.8201 62.1567ZM26.1047 57.7113C26.1047 55.939 25.3625 54.4212 23.9202 53.3722L21.5675 56.6072C21.9396 56.8778 22.1047 57.1744 22.1047 57.7113H26.1047ZM23.9559 53.3988C22.7303 52.465 20.8024 51.793 18.5029 51.2495L17.5828 55.1422C19.8193 55.6709 21.0254 56.1948 21.5317 56.5806L23.9559 53.3988ZM18.494 51.2474C14.6254 50.3516 12.288 49.3587 11.1375 48.4259L8.61825 51.5329C10.5193 53.0743 13.6251 54.2258 17.5916 55.1443L18.494 51.2474ZM11.0955 48.3928C9.93923 47.5054 9.21806 46.0889 9.21806 43.732H5.21806C5.21806 46.9832 6.27008 49.7317 8.66021 51.566L11.0955 48.3928ZM9.21806 43.732C9.21806 41.567 9.96825 40.0548 11.4081 38.9448L8.96611 35.7768C6.44725 37.7184 5.21806 40.4537 5.21806 43.732H9.21806ZM11.4285 38.9289C12.9807 37.7001 15.0489 37.0103 17.7954 37.0103V33.0103C14.3563 33.0103 11.3524 33.8875 8.94572 35.7927L11.4285 38.9289ZM17.7954 37.0103C21.5402 37.0103 24.6485 38.0923 27.2288 40.2067L29.7641 37.1128C26.4062 34.3613 22.3804 33.0103 17.7954 33.0103V37.0103ZM26.8654 37.5023L24.1437 41.3373L27.4058 43.6523L30.1274 39.8173L26.8654 37.5023ZM27.1201 41.015C25.9487 39.9501 24.4585 39.1696 22.7423 38.613L21.5083 42.4179C22.8436 42.851 23.7864 43.3902 24.4294 43.9747L27.1201 41.015ZM22.7882 38.6285C21.0685 38.0243 19.3394 37.7113 17.6098 37.7113V41.7113C18.8492 41.7113 20.1305 41.9345 21.4623 42.4024L22.7882 38.6285ZM17.6098 37.7113C15.805 37.7113 14.1325 38.1019 12.7563 39.0592L15.0406 42.3428C15.5614 41.9806 16.3631 41.7113 17.6098 41.7113V37.7113ZM12.7718 39.0486C11.2855 40.062 10.5376 41.5854 10.5376 43.3608H14.5376C14.5376 42.827 14.697 42.5772 15.0251 42.3535L12.7718 39.0486ZM53.7599 59.0722L52.2523 57.7579L52.2426 57.769L52.2331 57.7803L53.7599 59.0722ZM55.863 35.7526V33.7526H53.863V35.7526H55.863ZM60.997 35.7526H62.997V33.7526H60.997V35.7526ZM57.4712 62.7216L56.0447 61.3198L57.4712 62.7216ZM38.9145 62.7216L40.341 61.3198L38.9145 62.7216ZM35.3887 35.7526V33.7526H33.3887V35.7526H35.3887ZM40.4609 35.7526H42.4609V33.7526H40.4609V35.7526ZM42.564 59.0722L44.0908 57.7803L44.0729 57.7592L44.0545 57.7386L42.564 59.0722ZM48.1928 63.4845C51.0551 63.4845 53.499 62.4767 55.2866 60.3641L52.2331 57.7803C51.2991 58.8841 50.0316 59.4845 48.1928 59.4845V63.4845ZM55.2674 60.3864C57.0712 58.3174 57.863 55.6158 57.863 52.5155H53.863C53.863 54.9409 53.2526 56.6105 52.2523 57.7579L55.2674 60.3864ZM57.863 52.5155V35.7526H53.863V52.5155H57.863ZM55.863 37.7526H60.997V33.7526H55.863V37.7526ZM58.997 35.7526V52.701H62.997V35.7526H58.997ZM58.997 52.701C58.997 56.6182 57.9329 59.3985 56.0447 61.3198L58.8977 64.1235C61.7106 61.2613 62.997 57.3612 62.997 52.701H58.997ZM56.0447 61.3198C54.1253 63.2729 51.5754 64.3093 48.1928 64.3093V68.3093C52.4804 68.3093 56.1161 66.9539 58.8977 64.1235L56.0447 61.3198ZM48.1928 64.3093C44.8103 64.3093 42.2604 63.2729 40.341 61.3198L37.488 64.1235C40.2696 66.9539 43.9053 68.3093 48.1928 68.3093V64.3093ZM40.341 61.3198C38.4528 59.3985 37.3887 56.6182 37.3887 52.701H33.3887C33.3887 57.3612 34.6751 61.2613 37.488 64.1235L40.341 61.3198ZM37.3887 52.701V35.7526H33.3887V52.701H37.3887ZM35.3887 37.7526H40.4609V33.7526H35.3887V37.7526ZM38.4609 35.7526V52.5155H42.4609V35.7526H38.4609ZM38.4609 52.5155C38.4609 55.6449 39.2469 58.3643 41.0735 60.4058L44.0545 57.7386C43.0769 56.646 42.4609 54.9943 42.4609 52.5155H38.4609ZM41.0372 60.3641C42.8321 62.4852 45.3019 63.4845 48.1928 63.4845V59.4845C46.3003 59.4845 45.0176 58.8756 44.0908 57.7803L41.0372 60.3641ZM91.371 57.6495L92.7984 56.2486L91.4462 54.8708L90.0215 56.1734L91.371 57.6495ZM94.6494 60.9897L96.1556 62.3055L97.3741 60.9106L96.0767 59.5888L94.6494 60.9897ZM71.5772 61.9794L70.1728 63.4033L70.1826 63.413L70.1925 63.4225L71.5772 61.9794ZM71.7009 39.5258L73.086 40.9686L73.0959 40.959L71.7009 39.5258ZM95.0823 40.2062L96.5599 41.5541L97.7925 40.2029L96.5567 38.8547L95.0823 40.2062ZM91.8659 43.732L90.4723 45.1665L91.9525 46.6045L93.3434 45.0799L91.8659 43.732ZM75.4741 42.9897L74.1034 41.5333L74.0962 41.5401L74.089 41.5469L75.4741 42.9897ZM75.4741 58.2062L76.9022 56.806L75.4741 58.2062ZM87.2885 60.4948L86.4654 58.6721L86.454 58.6772L86.4428 58.6825L87.2885 60.4948ZM89.9436 59.0504L93.222 62.3906L96.0767 59.5888L92.7984 56.2486L89.9436 59.0504ZM93.1431 59.6739C90.3753 62.8424 87.0413 64.3711 83.0205 64.3711V68.3711C88.2368 68.3711 92.6554 66.3122 96.1556 62.3055L93.1431 59.6739ZM83.0205 64.3711C78.9127 64.3711 75.6086 63.0757 72.9618 60.5362L70.1925 63.4225C73.6488 66.7387 77.9737 68.3711 83.0205 68.3711V64.3711ZM72.9816 60.5555C70.3783 57.9878 69.0617 54.7807 69.0617 50.7835H65.0617C65.0617 55.776 66.7555 60.0329 70.1728 63.4033L72.9816 60.5555ZM69.0617 50.7835C69.0617 46.7567 70.4108 43.5367 73.086 40.9685L70.3158 38.083C66.8054 41.453 65.0617 45.7382 65.0617 50.7835H69.0617ZM73.0959 40.959C75.7802 38.3462 79.1607 37.0103 83.3916 37.0103V33.0103C78.2205 33.0103 73.8071 34.6847 70.3059 38.0926L73.0959 40.959ZM83.3916 37.0103C87.4385 37.0103 90.8041 38.4988 93.608 41.5576L96.5567 38.8547C93.0101 34.9858 88.5818 33.0103 83.3916 33.0103V37.0103ZM93.6048 38.8583L90.3883 42.384L93.3434 45.0799L96.5599 41.5541L93.6048 38.8583ZM93.2594 42.2974C91.7109 40.7931 90.1448 39.6463 88.5568 38.9804L87.0099 42.6691C87.9787 43.0754 89.1342 43.8667 90.4723 45.1665L93.2594 42.2974ZM88.5568 38.9804C86.9807 38.3194 85.2014 38.0206 83.2679 38.0206V42.0206C84.7983 42.0206 86.0294 42.2579 87.0099 42.6691L88.5568 38.9804ZM83.2679 38.0206C79.7053 38.0206 76.6053 39.1785 74.1034 41.5333L76.8448 44.4461C78.5491 42.8421 80.645 42.0206 83.2679 42.0206V38.0206ZM74.089 41.5469C71.6056 43.931 70.3813 46.981 70.3813 50.5361H74.3813C74.3813 47.988 75.2188 46.0072 76.8592 44.4325L74.089 41.5469ZM70.3813 50.5361C70.3813 54.057 71.6086 57.1202 74.046 59.6063L76.9022 56.806C75.2159 55.086 74.3813 53.0357 74.3813 50.5361H70.3813ZM74.046 59.6063C76.4692 62.078 79.4315 63.3608 82.8349 63.3608V59.3608C80.5476 59.3608 78.6027 58.5406 76.9022 56.806L74.046 59.6063ZM82.8349 63.3608C84.7831 63.3608 86.5712 63.0367 88.1343 62.3072L86.4428 58.6825C85.5316 59.1077 84.3506 59.3608 82.8349 59.3608V63.3608ZM88.1117 62.3176C89.642 61.6265 91.1779 60.536 92.7205 59.1255L90.0215 56.1734C88.6775 57.4022 87.4917 58.2086 86.4654 58.6721L88.1117 62.3176ZM118.545 54.9897L117.979 53.0715L115.276 53.8695L116.921 56.1573L118.545 54.9897ZM126.463 66V68H130.364L128.086 64.8324L126.463 66ZM119.968 66L118.336 67.1569L118.934 68H119.968V66ZM112.731 55.7938L114.362 54.637L113.764 53.7938H112.731V55.7938ZM106.05 55.7938V53.7938H104.05V55.7938H106.05ZM106.05 66V68H108.05V66H106.05ZM100.916 66H98.9161V68H100.916V66ZM100.916 35.7526V33.7526H98.9161V35.7526H100.916ZM122.009 38.1031L120.767 39.6712L120.785 39.6854L120.804 39.6992L122.009 38.1031ZM118.236 49.9175L116.979 48.3616V48.3616L118.236 49.9175ZM118.236 41.5052L117.097 43.1495L117.119 43.1646L117.141 43.1791L118.236 41.5052ZM106.05 40.3918V38.3918H104.05V40.3918H106.05ZM106.05 51.2165H104.05V53.2165H106.05V51.2165ZM116.921 56.1573L124.839 67.1676L128.086 64.8324L120.169 53.822L116.921 56.1573ZM126.463 64H119.968V68H126.463V64ZM121.599 64.8431L114.362 54.637L111.099 56.9507L118.336 67.1569L121.599 64.8431ZM112.731 53.7938H106.05V57.7938H112.731V53.7938ZM104.05 55.7938V66H108.05V55.7938H104.05ZM106.05 64H100.916V68H106.05V64ZM102.916 66V35.7526H98.9161V66H102.916ZM100.916 37.7526H112.174V33.7526H100.916V37.7526ZM112.174 37.7526C116.624 37.7526 119.331 38.534 120.767 39.6712L123.25 36.535C120.728 34.5382 116.879 33.7526 112.174 33.7526V37.7526ZM120.804 39.6992C122.155 40.7192 123.04 42.5032 123.04 45.5876H127.04C127.04 41.7442 125.904 38.5385 123.214 36.507L120.804 39.6992ZM123.04 45.5876C123.04 47.801 122.56 49.4004 121.771 50.5437C120.994 51.6678 119.79 52.5368 117.979 53.0715L119.111 56.9078C121.63 56.1642 123.673 54.827 125.062 52.8171C126.437 50.8264 127.04 48.364 127.04 45.5876H123.04ZM112.359 53.2165C115.258 53.2165 117.843 52.8058 119.492 51.4734L116.979 48.3616C116.484 48.7612 115.152 49.2165 112.359 49.2165V53.2165ZM119.492 51.4734C121.23 50.0696 121.844 47.8849 121.844 45.5258H117.844C117.844 47.2904 117.385 48.0335 116.979 48.3616L119.492 51.4734ZM121.844 45.5258C121.844 43.2576 121.228 41.0722 119.33 39.8312L117.141 43.1791C117.387 43.3401 117.844 43.8352 117.844 45.5258H121.844ZM119.374 39.8608C117.757 38.7415 115.286 38.3918 112.483 38.3918V42.3918C115.206 42.3918 116.57 42.7843 117.097 43.1495L119.374 39.8608ZM112.483 38.3918H106.05V42.3918H112.483V38.3918ZM104.05 40.3918V51.2165H108.05V40.3918H104.05ZM106.05 53.2165H112.359V49.2165H106.05V53.2165ZM153.718 35.7526H155.718V33.7526H153.718V35.7526ZM153.718 40.5155V42.5155H155.718V40.5155H153.718ZM137.574 40.5155V38.5155H135.574V40.5155H137.574ZM137.574 48.5567H135.574V50.5567H137.574V48.5567ZM152.048 48.5567H154.048V46.5567H152.048V48.5567ZM152.048 53.0722V55.0722H154.048V53.0722H152.048ZM137.574 53.0722V51.0722H135.574V53.0722H137.574ZM137.574 61.1753H135.574V63.1753H137.574V61.1753ZM154.213 61.1753H156.213V59.1753H154.213V61.1753ZM154.213 66V68H156.213V66H154.213ZM132.44 66H130.44V68H132.44V66ZM132.44 35.7526V33.7526H130.44V35.7526H132.44ZM151.718 35.7526V40.5155H155.718V35.7526H151.718ZM153.718 38.5155H137.574V42.5155H153.718V38.5155ZM135.574 40.5155V48.5567H139.574V40.5155H135.574ZM137.574 50.5567H152.048V46.5567H137.574V50.5567ZM150.048 48.5567V53.0722H154.048V48.5567H150.048ZM152.048 51.0722H137.574V55.0722H152.048V51.0722ZM135.574 53.0722V61.1753H139.574V53.0722H135.574ZM137.574 63.1753H154.213V59.1753H137.574V63.1753ZM152.213 61.1753V66H156.213V61.1753H152.213ZM154.213 64H132.44V68H154.213V64ZM134.44 66V35.7526H130.44V66H134.44ZM132.44 37.7526H153.718V33.7526H132.44V37.7526Z" fill="white"/>
<path d="M188.425 35.7526V40.5155H172.28V48.5567H186.755V53.0722H172.28V61.1753H188.92V66H167.146V35.7526H188.425ZM218.148 35.7526H223.22V66H217.715L200.581 43.9175V66H195.447V35.7526H200.581L218.148 58.3299V35.7526ZM245.452 66H239.761L227.576 35.7526H233.328L242.606 58.3299L251.947 35.7526H257.637L245.452 66ZM261.951 35.7526H267.085V66H261.951V35.7526ZM266.652 33.2165H262.198L266.776 26.9691L271.91 29.0722L266.652 33.2165ZM279.696 59.134L276.665 66H271.221L284.582 35.7526H290.026L303.324 66H297.881L294.85 59.134H279.696ZM292.809 54.3711L287.304 41.9381L281.799 54.3711H292.809Z" fill="#EFF3EE"/>
<path d="M188.425 35.7526H190.425V33.7526H188.425V35.7526ZM188.425 40.5155V42.5155H190.425V40.5155H188.425ZM172.28 40.5155V38.5155H170.28V40.5155H172.28ZM172.28 48.5567H170.28V50.5567H172.28V48.5567ZM186.755 48.5567H188.755V46.5567H186.755V48.5567ZM186.755 53.0722V55.0722H188.755V53.0722H186.755ZM172.28 53.0722V51.0722H170.28V53.0722H172.28ZM172.28 61.1753H170.28V63.1753H172.28V61.1753ZM188.92 61.1753H190.92V59.1753H188.92V61.1753ZM188.92 66V68H190.92V66H188.92ZM167.146 66H165.146V68H167.146V66ZM167.146 35.7526V33.7526H165.146V35.7526H167.146ZM186.425 35.7526V40.5155H190.425V35.7526H186.425ZM188.425 38.5155H172.28V42.5155H188.425V38.5155ZM170.28 40.5155V48.5567H174.28V40.5155H170.28ZM172.28 50.5567H186.755V46.5567H172.28V50.5567ZM184.755 48.5567V53.0722H188.755V48.5567H184.755ZM186.755 51.0722H172.28V55.0722H186.755V51.0722ZM170.28 53.0722V61.1753H174.28V53.0722H170.28ZM172.28 63.1753H188.92V59.1753H172.28V63.1753ZM186.92 61.1753V66H190.92V61.1753H186.92ZM188.92 64H167.146V68H188.92V64ZM169.146 66V35.7526H165.146V66H169.146ZM167.146 37.7526H188.425V33.7526H167.146V37.7526ZM218.148 35.7526V33.7526H216.148V35.7526H218.148ZM223.22 35.7526H225.22V33.7526H223.22V35.7526ZM223.22 66V68H225.22V66H223.22ZM217.715 66L216.135 67.226L216.736 68H217.715V66ZM200.581 43.9175L202.161 42.6915L198.581 38.0774V43.9175H200.581ZM200.581 66V68H202.581V66H200.581ZM195.447 66H193.447V68H195.447V66ZM195.447 35.7526V33.7526H193.447V35.7526H195.447ZM200.581 35.7526L202.16 34.5244L201.559 33.7526H200.581V35.7526ZM218.148 58.3299L216.57 59.5581L220.148 64.1572V58.3299H218.148ZM218.148 37.7526H223.22V33.7526H218.148V37.7526ZM221.22 35.7526V66H225.22V35.7526H221.22ZM223.22 64H217.715V68H223.22V64ZM219.295 64.774L202.161 42.6915L199.001 45.1436L216.135 67.226L219.295 64.774ZM198.581 43.9175V66H202.581V43.9175H198.581ZM200.581 64H195.447V68H200.581V64ZM197.447 66V35.7526H193.447V66H197.447ZM195.447 37.7526H200.581V33.7526H195.447V37.7526ZM199.003 36.9808L216.57 59.5581L219.727 57.1017L202.16 34.5244L199.003 36.9808ZM220.148 58.3299V35.7526H216.148V58.3299H220.148ZM245.452 66V68H246.802L247.307 66.7474L245.452 66ZM239.761 66L237.906 66.7474L238.411 68H239.761V66ZM227.576 35.7526V33.7526H224.614L225.72 36.4999L227.576 35.7526ZM233.328 35.7526L235.178 34.9924L234.669 33.7526H233.328V35.7526ZM242.606 58.3299L240.757 59.0901L242.6 63.5766L244.455 59.0945L242.606 58.3299ZM251.947 35.7526V33.7526H250.61L250.099 34.988L251.947 35.7526ZM257.637 35.7526L259.493 36.4999L260.599 33.7526H257.637V35.7526ZM245.452 64H239.761V68H245.452V64ZM241.616 65.2526L229.431 35.0052L225.72 36.4999L237.906 66.7474L241.616 65.2526ZM227.576 37.7526H233.328V33.7526H227.576V37.7526ZM231.478 36.5128L240.757 59.0901L244.456 57.5697L235.178 34.9924L231.478 36.5128ZM244.455 59.0945L253.795 36.5171L250.099 34.988L240.758 57.5653L244.455 59.0945ZM251.947 37.7526H257.637V33.7526H251.947V37.7526ZM255.782 35.0052L243.597 65.2526L247.307 66.7474L259.493 36.4999L255.782 35.0052ZM261.951 35.7526V33.7526H259.951V35.7526H261.951ZM267.085 35.7526H269.085V33.7526H267.085V35.7526ZM267.085 66V68H269.085V66H267.085ZM261.951 66H259.951V68H261.951V66ZM266.652 33.2165V35.2165H267.346L267.89 34.7872L266.652 33.2165ZM262.198 33.2165L260.585 32.0345L258.254 35.2165H262.198V33.2165ZM266.776 26.9691L267.534 25.1183L266.087 24.5255L265.162 25.787L266.776 26.9691ZM271.91 29.0722L273.148 30.6429L275.84 28.5208L272.668 27.2214L271.91 29.0722ZM261.951 37.7526H267.085V33.7526H261.951V37.7526ZM265.085 35.7526V66H269.085V35.7526H265.085ZM267.085 64H261.951V68H267.085V64ZM263.951 66V35.7526H259.951V66H263.951ZM266.652 31.2165H262.198V35.2165H266.652V31.2165ZM263.812 34.3985L268.389 28.1511L265.162 25.787L260.585 32.0345L263.812 34.3985ZM266.018 28.8198L271.152 30.9229L272.668 27.2214L267.534 25.1183L266.018 28.8198ZM270.672 27.5015L265.414 31.6458L267.89 34.7872L273.148 30.6429L270.672 27.5015ZM279.696 59.134V57.134H278.392L277.866 58.3263L279.696 59.134ZM276.665 66V68H277.968L278.494 66.8077L276.665 66ZM271.221 66L269.392 65.1919L268.152 68H271.221V66ZM284.582 35.7526V33.7526H283.279L282.753 34.9445L284.582 35.7526ZM290.026 35.7526L291.856 34.9476L291.331 33.7526H290.026V35.7526ZM303.324 66V68H306.389L305.155 65.195L303.324 66ZM297.881 66L296.052 66.8077L296.578 68H297.881V66ZM294.85 59.134L296.68 58.3263L296.154 57.134H294.85V59.134ZM292.809 54.3711V56.3711H295.882L294.638 53.5614L292.809 54.3711ZM287.304 41.9381L289.133 41.1284L287.304 36.9983L285.475 41.1284L287.304 41.9381ZM281.799 54.3711L279.97 53.5614L278.726 56.3711H281.799V54.3711ZM277.866 58.3263L274.835 65.1923L278.494 66.8077L281.525 59.9417L277.866 58.3263ZM276.665 64H271.221V68H276.665V64ZM273.051 66.8081L286.412 36.5607L282.753 34.9445L269.392 65.1919L273.051 66.8081ZM284.582 37.7526H290.026V33.7526H284.582V37.7526ZM288.195 36.5576L301.494 66.805L305.155 65.195L291.856 34.9476L288.195 36.5576ZM303.324 64H297.881V68H303.324V64ZM299.711 65.1923L296.68 58.3263L293.021 59.9417L296.052 66.8077L299.711 65.1923ZM294.85 57.134H279.696V61.134H294.85V57.134ZM294.638 53.5614L289.133 41.1284L285.475 42.7479L290.98 55.1809L294.638 53.5614ZM285.475 41.1284L279.97 53.5614L283.627 55.1809L289.133 42.7479L285.475 41.1284ZM281.799 56.3711H292.809V52.3711H281.799V56.3711Z" fill="#0A5004" fill-opacity="0.8"/>
</svg>
